<svg width="15" height="22" viewBox="0 0 15 22" fill="none" xmlns="http://www.w3.org/2000/svg">
<path fill-rule="evenodd" clip-rule="evenodd" d="M2.24908 0C1.01429 0 0 1.04892 0 2.32589V21.3533C5.35404e-05 21.4686 0.0299177 21.5818 0.0865006 21.6812C0.143083 21.7806 0.224328 21.8626 0.321823 21.9186C0.419317 21.9746 0.529517 22.0026 0.641013 21.9998C0.752509 21.997 0.861248 21.9634 0.955971 21.9025L7.5 17.7044L14.044 21.9025C14.1388 21.9634 14.2475 21.997 14.359 21.9998C14.4705 22.0026 14.5807 21.9746 14.6782 21.9186C14.7757 21.8626 14.8569 21.7806 14.9135 21.6812C14.9701 21.5818 14.9999 21.4686 15 21.3533V2.32589C15 1.04892 13.9857 0 12.7509 0H2.24908ZM2.24908 1.29428H12.7509C13.3147 1.29428 13.7485 1.74285 13.7485 2.32589V20.1927L7.82789 16.3958C7.72929 16.3331 7.61578 16.2999 7.5 16.2999C7.38422 16.2999 7.27071 16.3331 7.17211 16.3958L1.25154 20.1927V2.32589C1.25154 1.74285 1.68529 1.29428 2.24908 1.29428Z" fill="#3F3F3F"/>
</svg>
